HIERARCHY
ROOT Hips
{
    OFFSET 0.000000 0.000000 0.000000
    CHANNELS 6 Xposition Yposition Zposition Zrotation Xrotation Yrotation
    JOINT Spine
    {
        OFFSET -0.000000 14.517291 0.000000
        CHANNELS 3 Zrotation Xrotation Yrotation
        JOINT Spine1
        {
            OFFSET -0.000000 37.558300 0.000000
            CHANNELS 3 Zrotation Xrotation Yrotation
            JOINT Neck
            {
                OFFSET -0.000000 37.404057 3.400369
                CHANNELS 3 Zrotation Xrotation Yrotation
                JOINT Head
                {
                    OFFSET -0.000000 24.785618 -3.540803
                    CHANNELS 3 Zrotation Xrotation Yrotation
                    End Site
                    {
                        OFFSET -0.000000 35.408028 0.000000
                    }
                }
            }
            JOINT LeftShoulder
            {
                OFFSET 6.992933 33.973492 -0.192664
                CHANNELS 3 Zrotation Xrotation Yrotation
                JOINT LeftArm
                {
                    OFFSET 21.527611 0.000000 0.000000
                    CHANNELS 3 Zrotation Xrotation Yrotation
                    JOINT LeftForeArm
                    {
                        OFFSET 56.353916 0.000000 0.000000
                        CHANNELS 3 Zrotation Xrotation Yrotation
                        JOINT LeftHand
                        {
                            OFFSET 47.774071 0.000000 0.000000
                            CHANNELS 3 Zrotation Xrotation Yrotation
                            End Site
                            {
                                OFFSET 26.556021 0.000000 0.000000
                            }
                        }
                    }
                }
            }
            JOINT RightShoulder
            {
                OFFSET -7.065357 33.973492 -0.192664
                CHANNELS 3 Zrotation Xrotation Yrotation
                JOINT RightArm
                {
                    OFFSET -21.527611 0.000000 0.000000
                    CHANNELS 3 Zrotation Xrotation Yrotation
                    JOINT RightForeArm
                    {
                        OFFSET -56.353916 0.000000 0.000000
                        CHANNELS 3 Zrotation Xrotation Yrotation
                        JOINT RightHand
                        {
                            OFFSET -47.774071 0.000000 0.000000
                            CHANNELS 3 Zrotation Xrotation Yrotation
                            End Site
                            {
                                OFFSET -26.556021 0.000000 0.000000
                            }
                        }
                    }
                }
            }
        }
    }
    JOINT LeftUpLeg
    {
        OFFSET 17.704014 0.000000 0.000000
        CHANNELS 3 Zrotation Xrotation Yrotation
        JOINT LeftLeg
        {
            OFFSET -0.000000 -81.181816 0.000000
            CHANNELS 3 Zrotation Xrotation Yrotation
            JOINT LeftFoot
            {
                OFFSET -0.000000 -62.821102 0.000000
                CHANNELS 3 Zrotation Xrotation Yrotation
                JOINT LeftToeBase
                {
                    OFFSET -0.000000 -11.507608 26.556021
                    CHANNELS 3 Zrotation Xrotation Yrotation
                    End Site
                    {
                        OFFSET -0.000000 0.000000 7.081605
                    }
                }
            }
        }
    }
    JOINT RightUpLeg
    {
        OFFSET -17.704014 0.000000 0.000000
        CHANNELS 3 Zrotation Xrotation Yrotation
        JOINT RightLeg
        {
            OFFSET -0.000000 -81.181816 0.000000
            CHANNELS 3 Zrotation Xrotation Yrotation
            JOINT RightFoot
            {
                OFFSET -0.000000 -62.821102 0.000000
                CHANNELS 3 Zrotation Xrotation Yrotation
                JOINT RightToeBase
                {
                    OFFSET -0.000000 -11.507608 26.556021
                    CHANNELS 3 Zrotation Xrotation Yrotation
                    End Site
                    {
                        OFFSET -0.000000 0.000000 7.081605
                    }
                }
            }
        }
    }
}
MOTION
Frames:    4
Frame Time:    0.008333
-9.247552    151.419693    -10.881398    -0.200811    1.712013    28.391584    -0.174194    2.752473    13.530641    -6.557673    -0.862182    4.459967    0.395884    2.002680    -10.135336    12.880198    -3.022771    -8.446353    2.166257    2.196508    -7.023701    -42.502094    18.502790    -47.962124    -11.925713    -15.499533    -132.397781    2.511289    -39.834267    -6.493943    -9.313115    0.361860    8.328035    28.354763    -26.001667    51.055500    -46.394882    -43.207268    49.241051    8.344633    -21.554892    40.914383    -1.833753    -35.595264    -30.445675    -10.867063    22.842783    -23.373730    -10.249195    4.052287    28.377361    0.000000    0.000000    0.000000    5.395559    11.820127    -17.118671    2.972170    22.738688    -1.787009    -3.108128    -30.247805    -6.864967    0.000000    0.000000    0.000000    
-9.221742    151.428513    -10.896230    -0.216426    1.715275    28.383034    -0.170159    2.749083    13.530684    -6.560197    -0.853753    4.460474    0.420217    1.984728    -10.142550    12.846431    -3.017672    -8.463417    2.171891    2.194117    -7.029068    -42.525887    18.509062    -47.951271    -11.925805    -15.487363    -132.387527    2.530352    -39.820019    -6.480135    -9.312994    0.380976    8.314544    28.144028    -25.817308    51.049965    -46.289345    -42.867744    48.158375    8.376298    -21.699726    40.992985    -1.819746    -35.589485    -30.421570    -10.849787    22.817318    -23.341112    -10.278029    4.048633    28.334229    0.000000    0.000000    0.000000    5.398000    11.821137    -17.113312    2.963809    22.708721    -1.771660    -3.086990    -30.230976    -6.856795    0.000000    0.000000    0.000000    
-9.198286    151.439163    -10.912169    -0.233701    1.718259    28.364845    -0.174842    2.754251    13.535463    -6.545651    -0.863062    4.461611    0.428898    1.971728    -10.153332    12.807559    -3.004472    -8.483873    2.164534    2.203077    -7.028903    -42.532116    18.525229    -47.946419    -11.923430    -15.503221    -132.385651    2.519704    -39.826511    -6.466418    -9.321722    0.388948    8.310663    27.914457    -25.605356    51.011028    -46.146793    -42.539825    47.104809    8.411041    -21.862593    40.984673    -1.789690    -35.586773    -30.408167    -10.862035    22.786119    -23.271738    -10.304731    4.035156    28.301521    0.000000    0.000000    0.000000    5.398768    11.814980    -17.075680    2.976031    22.687363    -1.794039    -3.092840    -30.201555    -6.871077    0.000000    0.000000    0.000000    
-9.170380    151.449158    -10.928910    -0.250880    1.722748    28.348289    -0.179791    2.748495    13.540330    -6.517384    -0.862961    4.463414    0.402177    1.961867    -10.156570    12.814795    -2.988056    -8.484363    2.142834    2.218093    -7.034630    -42.548901    18.515018    -47.934990    -11.928029    -15.485141    -132.377182    2.514183    -39.816196    -6.477921    -9.346408    0.405075    8.307818    27.709089    -25.407562    50.982609    -45.959393    -42.206455    46.073463    8.622704    -21.946320    41.160397    -1.764326    -35.584171    -30.387106    -10.860337    22.753471    -23.224228    -10.327558    4.032362    28.253376    0.000000    0.000000    0.000000    5.394594    11.810970    -17.055216    2.985163    22.664822    -1.802868    -3.045061    -30.190990    -6.852448    0.000000    0.000000    0.000000    
